<svg width="1067" height="800" viewBox="0 0 1067 800" fill="none" xmlns="http://www.w3.org/2000/svg">
<rect width="1067" height="800" fill="#212429"/>
<g opacity="0.8">
<path d="M1067 0H0V800H1067V0Z" fill="#EAEAEA"/>
<path d="M1067 0H0V800H1067V0Z" fill="white"/>
<mask id="mask0" mask-type="alpha" maskUnits="userSpaceOnUse" x="0" y="0" width="1067" height="800">
<path d="M1067 0H0V800H1067V0Z" fill="white"/>
</mask>
<g mask="url(#mask0)">
<path d="M1067 0H0V800H1067V0Z" fill="#363636"/>
<path d="M666.875 0H533.5V133.333H666.875V0Z" fill="#5E5CC7"/>
<path d="M533.5 0H400.125V133.333H533.5V0Z" fill="#5E5CC7"/>
<path d="M133.375 333.335C133.375 296.516 163.232 266.668 200.063 266.668H266.75V400.001H200.063C163.232 400.001 133.375 370.153 133.375 333.335Z" fill="#5E5CC7"/>
<path d="M533.5 266.668H400.125V400.001H533.5V266.668Z" fill="#5E5CC7"/>
<path d="M533.5 400H400.125V533.333H533.5V400Z" fill="#423771"/>
<path d="M800.25 266.668H666.875V400.001H800.25V266.668Z" fill="#8773E0"/>
<path d="M666.875 266.668H533.5V400.001H666.875V266.668Z" fill="#8773E0"/>
<path d="M533.5 666.668H400.125V800.001H533.5V666.668Z" fill="#423771"/>
<path d="M400.125 266.668H266.75V400.001H400.125V266.668Z" fill="#5E5CC7"/>
<path d="M533.5 533.334H400.125V666.667H533.5V533.334Z" fill="#212529"/>
<path d="M533.5 133.334H400.125V266.667H533.5V133.334Z" fill="#42417B"/>
<path d="M533.5 266.668H600.188C637.018 266.668 666.875 296.516 666.875 333.335C666.875 370.153 637.018 400.001 600.188 400.001H533.5V266.668Z" fill="#5E5CC7"/>
<path d="M533.5 666.668H600.188C637.018 666.668 666.875 696.515 666.875 733.335C666.875 770.155 637.018 800.001 600.188 800.001H533.5V666.668Z" fill="#B89AF5"/>
<path d="M533.5 533.334H600.188C637.018 533.334 666.875 563.182 666.875 600.001C666.875 636.819 637.018 666.667 600.188 666.667H533.5V533.334Z" fill="#42417B"/>
<path d="M400.125 66.6667C400.125 29.8477 429.982 0 466.813 0C503.643 0 533.5 29.8477 533.5 66.6667V133.333H400.125V66.6667Z" fill="#42417B"/>
<path d="M800.25 200.001C800.25 163.182 830.106 133.334 866.938 133.334C903.769 133.334 933.625 163.182 933.625 200.001V266.667H800.25V200.001Z" fill="#B89AF5"/>
<path d="M533.5 200.001C533.5 163.182 563.357 133.334 600.188 133.334C637.018 133.334 666.875 163.182 666.875 200.001V266.667H533.5V200.001Z" fill="#B89AF5"/>
<path d="M266.75 200.001C266.75 163.182 296.607 133.334 333.438 133.334C370.268 133.334 400.125 163.182 400.125 200.001V266.667H267.546C267.106 266.667 266.75 266.311 266.75 265.872V200.001Z" fill="#5D6CD8"/>
<path d="M266.75 733.335C266.75 696.515 296.607 666.668 333.438 666.668C370.268 666.668 400.125 696.515 400.125 733.335V800.001H267.546C267.106 800.001 266.75 799.648 266.75 799.208V733.335Z" fill="#5D6CD8"/>
<path d="M600.188 0.000656128C600.188 -36.8183 570.33 -66.666 533.5 -66.666C496.67 -66.666 466.812 -36.8183 466.812 0.000656128C466.812 36.8196 496.67 66.6673 533.5 66.6673C570.33 66.6673 600.188 36.8196 600.188 0.000656128Z" fill="#42417B"/>
<path fill-rule="evenodd" clip-rule="evenodd" d="M400.125 266.668H533.5C533.5 303.487 503.643 333.335 466.813 333.335C429.982 333.335 400.125 303.487 400.125 266.668Z" fill="#8773E0"/>
<path fill-rule="evenodd" clip-rule="evenodd" d="M666.875 133.334H800.25C800.25 170.153 770.394 200.001 733.563 200.001C696.731 200.001 666.875 170.153 666.875 133.334Z" fill="#8773E0"/>
<path fill-rule="evenodd" clip-rule="evenodd" d="M800.25 200H933.625C933.625 236.819 903.769 266.667 866.938 266.667C830.106 266.667 800.25 236.819 800.25 200Z" fill="#423771"/>
<path d="M533.5 466.667C533.5 429.848 563.357 400 600.188 400H665.555C666.283 400 666.875 400.591 666.875 401.32C666.875 474.229 606.431 533.333 533.5 533.333V466.667Z" fill="#42417B"/>
<path d="M133.375 406.831C133.375 403.059 136.435 400 140.208 400H266.75V466.667C266.75 503.485 236.893 533.333 200.063 533.333C163.232 533.333 133.375 503.485 133.375 466.667V406.831Z" fill="#42417B"/>
<path fill-rule="evenodd" clip-rule="evenodd" d="M533.5 533.335H400.125C400.125 496.516 429.982 466.668 466.813 466.668C503.643 466.668 533.5 496.516 533.5 533.335Z" fill="#8773E0"/>
<path fill-rule="evenodd" clip-rule="evenodd" d="M1067 266.667H933.625C933.625 229.848 963.481 200 1000.31 200C1037.14 200 1067 229.848 1067 266.667Z" fill="#42417B"/>
<path fill-rule="evenodd" clip-rule="evenodd" d="M400.125 400.001H266.75C266.75 363.182 296.607 333.334 333.438 333.334C370.268 333.334 400.125 363.182 400.125 400.001Z" fill="#B89AF5"/>
<path d="M933.625 533.334H800.25V666.667H933.625V533.334Z" fill="#212529"/>
<path d="M933.625 666.668H800.25V800.001H933.625V666.668Z" fill="#B89AF5"/>
<path d="M400.125 400H266.75V533.333H400.125V400Z" fill="#423771"/>
<path d="M266.75 533.334H400.125V600.001C400.125 636.819 370.268 666.667 333.438 666.667C296.607 666.667 266.75 636.819 266.75 600.001V533.334Z" fill="#423771"/>
<path fill-rule="evenodd" clip-rule="evenodd" d="M533.5 -66.666C533.5 -29.847 503.643 0.000658989 466.813 0.000658989C466.813 -36.8183 496.67 -66.666 533.5 -66.666ZM400.125 66.6673C400.125 29.8483 429.982 0.000658989 466.813 0.000658989C466.813 36.8197 436.955 66.6673 400.125 66.6673ZM466.813 0.000658989C429.982 0.000658989 400.125 -29.847 400.125 -66.666C436.955 -66.666 466.813 -36.8183 466.813 0.000658989ZM466.813 0.000658989C503.643 0.000658989 533.5 29.8483 533.5 66.6673C496.67 66.6673 466.813 36.8197 466.813 0.000658989Z" fill="#8773E0"/>
<path d="M933.625 266.668H800.25V400.001H933.625V266.668Z" fill="#B89AF5"/>
<path d="M133.375 666.668H0V800.001H133.375V666.668Z" fill="#5E5CC7"/>
<path d="M933.625 0H800.25V133.333H933.625V0Z" fill="#B89AF5"/>
<path d="M133.375 133.334H0V266.667H133.375V133.334Z" fill="#42417B"/>
<path d="M1067 266.668H933.625V400.001H1067V266.668Z" fill="#42417B"/>
<path d="M800.25 0H666.875V133.333H800.25V0Z" fill="#8773E0"/>
<path d="M133.375 400H0V533.333H133.375V400Z" fill="#B89AF5"/>
<path d="M933.625 400H800.25V533.333H933.625V400Z" fill="#B89AF5"/>
<path d="M800.25 400H866.938C903.769 400 933.625 429.848 933.625 466.667V532.231C933.625 532.84 933.131 533.333 932.525 533.333C859.468 533.333 800.25 473.029 800.25 400Z" fill="#5E5CC7"/>
<path fill-rule="evenodd" clip-rule="evenodd" d="M800.25 400.001C763.418 400.001 733.562 370.153 733.562 333.335C733.562 296.516 763.418 266.668 800.25 266.668V400.001Z" fill="#42417B"/>
<path fill-rule="evenodd" clip-rule="evenodd" d="M800.25 400.001V266.668C837.082 266.668 866.938 296.516 866.938 333.335C866.938 370.153 837.082 400.001 800.25 400.001Z" fill="#42417B"/>
<path d="M933.625 533.334H1000.31C1037.14 533.334 1067 563.182 1067 600.001C1067 636.819 1037.14 666.667 1000.31 666.667H933.625V533.334Z" fill="#42417B"/>
<path fill-rule="evenodd" clip-rule="evenodd" d="M933.625 666.667C896.793 666.667 866.938 636.819 866.938 600.001C866.938 563.182 896.793 533.334 933.625 533.334V666.667Z" fill="#42417B"/>
<path d="M133.375 333.335C133.375 296.516 103.518 266.668 66.6875 266.668C29.857 266.668 0 296.516 0 333.335C0 370.154 29.857 400.001 66.6875 400.001C103.518 400.001 133.375 370.154 133.375 333.335Z" fill="#5D6CD8"/>
<path d="M800.25 600.001C800.25 563.182 770.393 533.334 733.562 533.334C696.732 533.334 666.875 563.182 666.875 600.001C666.875 636.82 696.732 666.667 733.562 666.667C770.393 666.667 800.25 636.82 800.25 600.001Z" fill="#423771"/>
<path d="M1067 400H933.625V533.333H1067V400Z" fill="#5D6CD8"/>
<path d="M666.875 466.667C666.875 429.848 696.731 400 733.563 400H800.25V533.333H733.563C696.731 533.333 666.875 503.485 666.875 466.667Z" fill="#5D6CD8"/>
<path fill-rule="evenodd" clip-rule="evenodd" d="M133.375 266.668H266.75C266.75 303.487 236.893 333.335 200.063 333.335C163.232 333.335 133.375 303.487 133.375 266.668Z" fill="#5D6CD8"/>
<path fill-rule="evenodd" clip-rule="evenodd" d="M533.5 266.668H666.875C666.875 303.487 637.018 333.335 600.188 333.335C563.357 333.335 533.5 303.487 533.5 266.668Z" fill="#B89AF5"/>
<path d="M266.75 133.334H133.375V266.667H266.75V133.334Z" fill="#5D6CD8"/>
<path fill-rule="evenodd" clip-rule="evenodd" d="M266.75 133.335H133.375C133.375 96.516 163.232 66.668 200.063 66.668C236.893 66.668 266.75 96.516 266.75 133.335Z" fill="#5D6CD8"/>
<path fill-rule="evenodd" clip-rule="evenodd" d="M266.75 0C266.75 36.819 236.893 66.6667 200.062 66.6667C200.062 29.8477 229.92 0 266.75 0Z" fill="#8773E0"/>
<path fill-rule="evenodd" clip-rule="evenodd" d="M133.375 133.335C133.375 96.516 163.232 66.668 200.063 66.668C200.063 103.487 170.205 133.335 133.375 133.335Z" fill="#5E5CC7"/>
<path fill-rule="evenodd" clip-rule="evenodd" d="M233.406 257.719C213.473 246.191 200.062 224.647 200.062 199.971C200.062 175.295 213.473 153.749 233.406 142.223C253.339 153.749 266.75 175.295 266.75 199.971C266.75 224.647 253.339 246.191 233.406 257.719Z" fill="#212529"/>
<path fill-rule="evenodd" clip-rule="evenodd" d="M533.5 133.334C533.5 170.153 503.643 200.001 466.812 200.001C466.812 163.182 496.67 133.334 533.5 133.334Z" fill="#5E5CC7"/>
<path fill-rule="evenodd" clip-rule="evenodd" d="M666.875 266.668C703.707 266.668 733.563 296.516 733.563 333.335C696.731 333.335 666.875 303.487 666.875 266.668Z" fill="#42417B"/>
<path fill-rule="evenodd" clip-rule="evenodd" d="M933.625 400C933.625 436.819 903.769 466.667 866.938 466.667C866.938 429.848 896.793 400 933.625 400Z" fill="#423771"/>
<path fill-rule="evenodd" clip-rule="evenodd" d="M133.375 133.334C133.375 170.153 103.518 200.001 66.6875 200.001C66.6875 163.182 96.5448 133.334 133.375 133.334Z" fill="#423771"/>
<path fill-rule="evenodd" clip-rule="evenodd" d="M133.375 533.333V400C170.205 400 200.063 429.848 200.063 466.667C200.063 503.485 170.205 533.333 133.375 533.333Z" fill="#B89AF5"/>
<path fill-rule="evenodd" clip-rule="evenodd" d="M0 533.335C0 496.516 29.857 466.668 66.6875 466.668C66.6875 503.487 36.8305 533.335 0 533.335Z" fill="#42417B"/>
<path d="M133.375 66.6667C133.375 29.8477 103.518 0 66.6875 0C29.857 0 0 29.8477 0 66.6667C0 103.486 29.857 133.333 66.6875 133.333C103.518 133.333 133.375 103.486 133.375 66.6667Z" fill="#8773E0"/>
<path fill-rule="evenodd" clip-rule="evenodd" d="M791.3 166.667C779.769 186.594 758.216 200.001 733.535 200.001C708.847 200.001 687.294 186.594 675.764 166.667C687.294 146.741 708.847 133.334 733.535 133.334C758.216 133.334 779.769 146.741 791.3 166.667Z" fill="#42417B"/>
<path fill-rule="evenodd" clip-rule="evenodd" d="M0 266.667C0 229.848 29.857 200 66.6875 200C66.6875 236.819 36.8305 266.667 0 266.667Z" fill="#8773E0"/>
<path fill-rule="evenodd" clip-rule="evenodd" d="M400.125 400.001C400.125 363.182 429.982 333.334 466.813 333.334C466.813 370.153 436.955 400.001 400.125 400.001Z" fill="#212529"/>
<path fill-rule="evenodd" clip-rule="evenodd" d="M100.031 657.719C80.0984 646.191 66.6875 624.647 66.6875 599.971C66.6875 575.295 80.0984 553.749 100.031 542.223C119.964 553.749 133.375 575.295 133.375 599.971C133.375 624.647 119.964 646.191 100.031 657.719ZM33.3438 657.719C13.4108 646.191 0 624.647 0 599.971C0 575.295 13.4108 553.749 33.3438 542.223C53.2767 553.749 66.6875 575.295 66.6875 599.971C66.6875 624.647 53.2767 646.191 33.3438 657.719Z" fill="#42417B"/>
<path fill-rule="evenodd" clip-rule="evenodd" d="M633.531 657.719C613.598 646.191 600.188 624.647 600.188 599.971C600.188 575.295 613.598 553.749 633.531 542.223C653.464 553.749 666.875 575.295 666.875 599.971C666.875 624.647 653.464 646.191 633.531 657.719Z" fill="#5E5CC7"/>
<path d="M1067 333.335C1067 296.516 1037.14 266.668 1000.31 266.668C963.482 266.668 933.625 296.516 933.625 333.335C933.625 370.154 963.482 400.001 1000.31 400.001C1037.14 400.001 1067 370.154 1067 333.335Z" fill="#5E5CC7"/>
<path d="M400.125 600.001C400.125 563.182 370.268 533.334 333.438 533.334C296.607 533.334 266.75 563.182 266.75 600.001C266.75 636.82 296.607 666.667 333.438 666.667C370.268 666.667 400.125 636.82 400.125 600.001Z" fill="#42417B"/>
<path d="M333.438 533.335C333.438 496.516 303.58 466.668 266.75 466.668C229.92 466.668 200.062 496.516 200.062 533.335C200.062 570.154 229.92 600.001 266.75 600.001C303.58 600.001 333.438 570.154 333.438 533.335Z" fill="#212529"/>
<path d="M400.125 466.667C400.125 429.848 370.268 400 333.438 400C296.607 400 266.75 429.848 266.75 466.667C266.75 503.486 296.607 533.333 333.438 533.333C370.268 533.333 400.125 503.486 400.125 466.667Z" fill="#B89AF5"/>
<path d="M1033.66 333.333C1033.66 314.924 1018.73 300 1000.31 300C981.897 300 966.969 314.924 966.969 333.333C966.969 351.743 981.897 366.667 1000.31 366.667C1018.73 366.667 1033.66 351.743 1033.66 333.333Z" fill="#423771"/>
<path d="M366.781 333.333C366.781 314.924 351.853 300 333.438 300C315.022 300 300.094 314.924 300.094 333.333C300.094 351.743 315.022 366.667 333.438 366.667C351.853 366.667 366.781 351.743 366.781 333.333Z" fill="#423771"/>
<path d="M100.031 333.333C100.031 314.924 85.1027 300 66.6875 300C48.2723 300 33.3438 314.924 33.3438 333.333C33.3438 351.743 48.2723 366.667 66.6875 366.667C85.1027 366.667 100.031 351.743 100.031 333.333Z" fill="#5E5CC7"/>
<path d="M500.156 600.001C500.156 581.592 485.228 566.668 466.812 566.668C448.397 566.668 433.469 581.592 433.469 600.001C433.469 618.411 448.397 633.335 466.812 633.335C485.228 633.335 500.156 618.411 500.156 600.001Z" fill="#B89AF5"/>
<path d="M633.531 466.667C633.531 448.258 618.603 433.334 600.188 433.334C581.772 433.334 566.844 448.258 566.844 466.667C566.844 485.077 581.772 500.001 600.188 500.001C618.603 500.001 633.531 485.077 633.531 466.667Z" fill="#B89AF5"/>
<path d="M233.406 600.001C233.406 581.592 218.478 566.668 200.062 566.668C181.647 566.668 166.719 581.592 166.719 600.001C166.719 618.411 181.647 633.335 200.062 633.335C218.478 633.335 233.406 618.411 233.406 600.001Z" fill="#42417B"/>
<path d="M766.906 466.667C766.906 448.258 751.978 433.334 733.562 433.334C715.147 433.334 700.219 448.258 700.219 466.667C700.219 485.077 715.147 500.001 733.562 500.001C751.978 500.001 766.906 485.077 766.906 466.667Z" fill="#42417B"/>
<path d="M100.031 600.001C100.031 581.592 85.1027 566.668 66.6875 566.668C48.2723 566.668 33.3438 581.592 33.3438 600.001C33.3438 618.411 48.2723 633.335 66.6875 633.335C85.1027 633.335 100.031 618.411 100.031 600.001Z" fill="#B89AF5"/>
<path d="M633.531 200.001C633.531 181.592 618.603 166.668 600.188 166.668C581.772 166.668 566.844 181.592 566.844 200.001C566.844 218.411 581.772 233.335 600.188 233.335C618.603 233.335 633.531 218.411 633.531 200.001Z" fill="#423771"/>
<path d="M233.406 466.667C233.406 448.258 218.478 433.334 200.062 433.334C181.647 433.334 166.719 448.258 166.719 466.667C166.719 485.077 181.647 500.001 200.062 500.001C218.478 500.001 233.406 485.077 233.406 466.667Z" fill="#5E5CC7"/>
<path d="M500.156 266.667C500.156 248.258 485.228 233.334 466.812 233.334C448.397 233.334 433.469 248.258 433.469 266.667C433.469 285.077 448.397 300.001 466.812 300.001C485.228 300.001 500.156 285.077 500.156 266.667Z" fill="#B89AF5"/>
<path d="M1033.66 600.001C1033.66 581.592 1018.73 566.668 1000.31 566.668C981.897 566.668 966.969 581.592 966.969 600.001C966.969 618.411 981.897 633.335 1000.31 633.335C1018.73 633.335 1033.66 618.411 1033.66 600.001Z" fill="#B89AF5"/>
<path fill-rule="evenodd" clip-rule="evenodd" d="M933.625 66.668C933.625 103.487 903.769 133.335 866.938 133.335C866.938 96.516 896.793 66.668 933.625 66.668ZM800.25 200.001C800.25 163.183 830.106 133.335 866.938 133.335C866.938 170.153 837.082 200.001 800.25 200.001ZM866.938 133.335C830.106 133.335 800.25 103.487 800.25 66.668C837.082 66.668 866.938 96.516 866.938 133.335ZM866.938 133.335C903.769 133.335 933.625 163.183 933.625 200.001C896.793 200.001 866.938 170.153 866.938 133.335Z" fill="#5E5CC7"/>
<path fill-rule="evenodd" clip-rule="evenodd" d="M733.562 733.335C733.562 696.515 763.418 666.668 800.25 666.668C800.25 703.488 770.394 733.335 733.562 733.335Z" fill="#5E5CC7"/>
<path d="M266.75 0H400.125V66.6667C400.125 103.485 370.268 133.333 333.438 133.333C296.607 133.333 266.75 103.485 266.75 66.6667V0Z" fill="#8773E0"/>
<path fill-rule="evenodd" clip-rule="evenodd" d="M333.438 66.6667C333.438 29.8477 363.295 0 400.125 0C400.125 36.819 370.268 66.6667 333.438 66.6667Z" fill="#B89AF5"/>
<path d="M266.75 666.668H133.375V800.001H266.75V666.668Z" fill="#5E5CC7"/>
<path fill-rule="evenodd" clip-rule="evenodd" d="M266.75 666.667H133.375C133.375 629.848 163.232 600 200.063 600C236.893 600 266.75 629.848 266.75 666.667Z" fill="#B89AF5"/>
<path d="M933.625 66.6667C933.625 29.8477 963.481 0 1000.31 0H1067V133.333H1000.31C963.481 133.333 933.625 103.485 933.625 66.6667Z" fill="#5E5CC7"/>
<path d="M1033.66 66.6673C1033.66 48.2578 1018.73 33.334 1000.31 33.334C981.897 33.334 966.969 48.2578 966.969 66.6673C966.969 85.0768 981.897 100.001 1000.31 100.001C1018.73 100.001 1033.66 85.0768 1033.66 66.6673Z" fill="#212529"/>
<path fill-rule="evenodd" clip-rule="evenodd" d="M66.6875 733.335C66.6875 696.515 96.5448 666.668 133.375 666.668C133.375 703.488 103.518 733.335 66.6875 733.335Z" fill="#42417B"/>
<path fill-rule="evenodd" clip-rule="evenodd" d="M1067 666.668C1067 703.488 1037.14 733.335 1000.31 733.335C1000.31 696.515 1030.17 666.668 1067 666.668ZM933.625 800.001C933.625 763.181 963.481 733.335 1000.31 733.335C1000.31 770.155 970.457 800.001 933.625 800.001ZM1000.31 733.335C963.481 733.335 933.625 703.488 933.625 666.668C970.457 666.668 1000.31 696.515 1000.31 733.335ZM1000.31 733.335C1037.14 733.335 1067 763.181 1067 800.001C1030.17 800.001 1000.31 770.155 1000.31 733.335Z" fill="#42417B"/>
<path fill-rule="evenodd" clip-rule="evenodd" d="M1058.05 166.667C1046.52 186.594 1024.97 200.001 1000.29 200.001C975.597 200.001 954.044 186.594 942.514 166.667C954.044 146.741 975.597 133.334 1000.29 133.334C1024.97 133.334 1046.52 146.741 1058.05 166.667Z" fill="#423771"/>
<path fill-rule="evenodd" clip-rule="evenodd" d="M600.188 466.668C600.188 503.487 570.33 533.335 533.5 533.335C533.5 496.516 563.357 466.668 600.188 466.668Z" fill="#8773E0"/>
<path fill-rule="evenodd" clip-rule="evenodd" d="M133.375 -66.666C133.375 -29.847 103.518 0.000658989 66.6875 0.000658989C66.6875 -36.8183 96.5448 -66.666 133.375 -66.666ZM133.375 66.6673C96.5448 66.6673 66.6875 36.8197 66.6875 0.000658989C103.518 0.000658989 133.375 29.8483 133.375 66.6673ZM0 -66.666C36.8305 -66.666 66.6875 -36.8183 66.6875 0.000658989C29.857 0.000658989 0 -29.847 0 -66.666ZM66.6875 0.000658989C66.6875 36.8197 36.8305 66.6673 0 66.6673C0 29.8483 29.857 0.000658989 66.6875 0.000658989Z" fill="#5E5CC7"/>
<path fill-rule="evenodd" clip-rule="evenodd" d="M400.125 466.668C400.125 503.487 370.268 533.335 333.438 533.335C333.438 496.516 363.295 466.668 400.125 466.668ZM266.75 600.001C266.75 563.183 296.607 533.335 333.438 533.335C333.438 570.153 303.58 600.001 266.75 600.001ZM333.438 533.335C296.607 533.335 266.75 503.487 266.75 466.668C303.58 466.668 333.438 496.516 333.438 533.335ZM333.438 533.335C370.268 533.335 400.125 563.183 400.125 600.001C363.295 600.001 333.438 570.153 333.438 533.335Z" fill="#4B4F9F"/>
</g>
</g>
</svg>
